<svg width="512" height="512" viewBox="0 0 512 512" fill="none" xmlns="http://www.w3.org/2000/svg">
  <rect width="512" height="512" rx="112" fill="white"/>
  <path d="M174 92v82c0 55.2 44.8 100 100 100s100-44.8 100-100V92" stroke="#06B6D4" stroke-width="34" stroke-linecap="round"/>
  <path d="M174 92h-38c-19.9 0-36 16.1-36 36v31c0 19.9 16.1 36 36 36h38M374 92h38c19.9 0 36 16.1 36 36v31c0 19.9-16.1 36-36 36h-38" stroke="#06B6D4" stroke-width="30" stroke-linecap="round"/>
  <path d="M274 274v45c0 49.7-40.3 90-90 90h-12" stroke="#06B6D4" stroke-width="30" stroke-linecap="round"/>
  <circle cx="151" cy="409" r="34" stroke="#06B6D4" stroke-width="28"/>
  <path d="M299 361c-18-29-65-20-65 19 0 42 65 78 65 78s65-36 65-78c0-39-47-48-65-19Z" fill="#EF4444"/>
</svg>
